# AST/ASF file generated using VICON BodyLanguage
# -----------------------------------------------
:version 1.10
:name VICON
:units
  mass 1.0
  length 0.45
  angle deg
:documentation
   .ast/.asf automatically generated from VICON data using
   VICON BodyBuilder and BodyLanguage model FoxedUp or BRILLIANT.MOD
:root
   order TX TY TZ RX RY RZ
   axis XYZ
   position 0 0 0  
   orientation 0 0 0 
:bonedata
  begin
     id 1 
     name lhipjoint
     direction 0.63403 -0.759788 0.143974 
     length 2.51904 
     axis 0 0 0  XYZ
  end
  begin
     id 2 
     name lfemur
     direction 0.34202 -0.939693 0  
     length 7.42313  
     axis 0 0 20  XYZ
    dof rx ry rz
    limits (-160.0 20.0)
           (-70.0 70.0)
           (-60.0 70.0)
  end
  begin
     id 3 
     name ltibia
     direction 0.34202 -0.939693 0   
     length 8.10141   
     axis 0 0 20   XYZ
    dof rx
    limits (-10.0 170.0)
  end
  begin
     id 4 
     name lfoot
     direction 0.0927455 -0.254816 0.962532   
     length 2.14078   
     axis -90 7.62852e-016 20   XYZ
    dof rx rz
    limits (-45.0 90.0)
           (-70.0 20.0)
  end
  begin
     id 5 
     name ltoes
     direction 1.53556e-011 -4.21949e-011 1   
     length 1.07182   
     axis -90 7.62852e-016 20   XYZ
    dof rx
    limits (-90.0 20.0)
  end
  begin
     id 6 
     name rhipjoint
     direction -0.659892 -0.738223 0.139888   
     length 2.59263  
     axis 0 0 0  XYZ 
  end
  begin
     id 7 
     name rfemur
     direction -0.34202 -0.939693 0   
     length 7.58575   
     axis 0 0 -20   XYZ
    dof rx ry rz
    limits (-160.0 20.0)
           (-70.0 70.0)
           (-70.0 60.0)
  end
  begin
     id 8 
     name rtibia
     direction -0.34202 -0.939693 0   
     length 8.19358   
     axis 0 0 -20   XYZ
    dof rx
    limits (-10.0 170.0)
 end
 begin
     id 9 
     name rfoot
     direction -0.0856543 -0.235333 0.968133   
     length 2.13415  
     axis -90 -7.62852e-016 -20   XYZ
    dof rx rz
    limits (-45.0 90.0)
           (-20.0 70.0)
  end
  begin
     id 10 
     name rtoes
     direction -1.53551e-011 -4.21811e-011 1   
     length 1.07055   
     axis -90 -7.62852e-016 -20   XYZ
    dof rx
    limits (-90.0 20.0)
  end
  begin
     id 11 
     name lowerback
     direction 0.025219 0.998394 -0.0507326   
     length 1.91844   
     axis 0 0 0   XYZ
    dof rx ry rz
    limits (-20.0 45.0)
           (-30.0 30.0)
           (-30.0 30.0)
  end
  begin
     id 12 
     name upperback
     direction 0.0213103 0.99967 -0.0143101   
     length 1.92246   
     axis 0 0 0   XYZ
    dof rx ry rz
    limits (-20.0 45.0)
           (-30.0 30.0)
           (-30.0 30.0)
  end
  begin
     id 13 
     name thorax
     direction 0.00920974 0.99991 0.00971518   
     length 1.92239   
     axis 0 0 0   XYZ
    dof rx ry rz
    limits (-20.0 45.0)
           (-30.0 30.0)
           (-30.0 30.0)
  end
  begin
     id 14 
     name lowerneck
     direction 0.0598257 0.997249 0.0437612   
     length 3.13679   
     axis 0 0 0   XYZ
    dof rx ry rz
    limits (-20.0 45.0)
           (-30.0 30.0)
           (-30.0 30.0)
  end
  begin
     id 15 
     name upperneck
     direction -0.035342 0.999338 0.00863891   
     length 3.16283   
     axis 0 0 0   XYZ
    dof rx ry rz
    limits (-20.0 45.0)
           (-30.0 30.0)
           (-30.0 30.0)
  end
  begin
     id 16
     name head
     direction 0.37144 0.811566 0.450991  
     length 1.2838  
     axis 0 0 0   XYZ
    dof rx ry rz
    limits (-20.0 45.0)
           (-30.0 30.0)
           (-30.0 30.0)
  end
  begin
     id 17 
     name lclavicle
     direction 0.961094 0.274654 -0.0293862  
     length 3.63466  
     axis 0 0 0   XYZ
    dof ry rz
    limits (-20.0 10.0)
           (0.0 20.0)
  end
  begin
     id 18 
     name lhumerus
     direction 1 -4.48963e-011 1.10303e-027   
     length 5.12842   
     axis 180 -30 -90   XYZ
    dof rx ry rz
    limits (-60.0 90.0)
           (-90.0 90.0)
           (-90.0 90.0)
  end
  begin
     id 19
     name lradius
     direction 1 -4.48968e-011 4.13199e-027   
     length 3.47396   
     axis 180 -30 -90   XYZ
    dof rx
    limits (-10.0 170.0)
  end
  begin
     id 20
     name lwrist
     direction 1 -4.48948e-011 9.12708e-027   
     length 1.73698   
     axis -6.84618e-015 90 90   XYZ
    dof ry
    limits (-180.0 0.0)
 end
  begin
     id 21 
     name lhand
     direction 1 -4.49057e-011 1.82749e-026   
     length 0.728607   
     axis -1.16502e-014 90 90   XYZ
    dof rx rz
    limits (-90.0 90.0)
           (-45.0 45.0)
  end
  begin
     id 22 
     name lfingers
     direction 1 -4.48912e-011 3.64949e-026   
     length 0.587422   
     axis -2.33008e-014 90 90   XYZ
    dof rx
    limits (0.0 90.0)
  end
  begin
     id 23
     name lthumb
     direction 0.707107 -6.34995e-011 0.707107   
     length 0.843424   
     axis -90 45 5.69224e-014   XYZ
    dof rx rz
    limits (-45.0 45.0)
           (-45.0 45.0)
  end
  begin
     id 24 
     name rclavicle
     direction -0.90514 0.421881 -0.0523369   
     length 3.57139  
     axis 0 0 0   XYZ 
    dof ry rz
    limits (-10.0 20.0)
           (-20.0 0.0)
  end
  begin
     id 25 
     name rhumerus
     direction -1 -4.48954e-011 -1.76662e-027  
     length 5.48477   
     axis 180 30 90   XYZ
    dof rx ry rz
    limits (-90.0 60.0)
           (-90.0 90.0)
           (-90.0 90.0)
  end
  begin
     id 26 
     name rradius
     direction -1 -4.48982e-011 1.26841e-027   
     length 3.47856   
     axis 180 30 90   XYZ
    dof rx
    limits (-10.0 170.0)
  end
  begin
     id 27 
     name rwrist
     direction -1 -4.49037e-011 9.13554e-027   
     length 1.73928   
     axis -6.84618e-015 -90 -90   XYZ
    dof ry
    limits (-180.0 0.0)
  end
  begin
     id 28
     name rhand
     direction -1 -4.48871e-011 1.82397e-026   
     length 0.709974   
     axis -1.16502e-014 -90 -90   XYZ
    dof rx rz
    limits (-90.0 90.0)
           (-45.0 45.0)
  end
  begin
     id 29
     name rfingers
     direction -1 -4.48994e-011 3.65258e-026   
     length 0.572399   
     axis -2.33008e-014 -90 -90   XYZ
    dof rx
    limits (0.0 90.0)
  end
  begin
     id 30
     name rthumb
     direction -0.707107 -6.34861e-011 0.707107   
     length 0.821855   
     axis -90 -45 -5.69224e-014   XYZ
    dof rx rz
    limits (-45.0 45.0)
           (-45.0 45.0)
  end
:hierarchy
  begin
    root lhipjoint rhipjoint lowerback
    lhipjoint lfemur
    lfemur ltibia
    ltibia lfoot
    lfoot ltoes
    rhipjoint rfemur
    rfemur rtibia
    rtibia rfoot
    rfoot rtoes
    lowerback upperback
    upperback thorax
    thorax lowerneck lclavicle rclavicle
    lowerneck upperneck
    upperneck head
    lclavicle lhumerus
    lhumerus lradius
    lradius lwrist
    lwrist lhand lthumb
    lhand lfingers
    rclavicle rhumerus
    rhumerus rradius
    rradius rwrist
    rwrist rhand rthumb
    rhand rfingers
  end

#!OML:ASF F:\VICON\USERDATA\INSTALL\Justin1\Justin1.ASF
:FULLY-SPECIFIED
:DEGREES
3543
root 0.0632747 18.2354 -3.16012 5.17154 -2.5878 -2.14386
lowerback 1.14237 -1.61625 0.366864
upperback -1.97299 -2.08078 3.03249
thorax -2.5672 -1.01582 2.98235
lowerneck -14.0643 -5.60819 -5.6453
upperneck 16.493 -6.42551 -0.107936
head 7.58249 -3.43631 0.193799
rclavicle -1.88597e-014 1.59028e-014
rhumerus -33.6132 -16.6217 -74.4632
rradius 27.253
rwrist 1.08419
rhand -22.7203 15.0319
rfingers 7.12502
rthumb 3.71323 -14.9155
lclavicle -1.88597e-014 1.59028e-014
lhumerus -36.2378 15.1893 82.448
lradius 29.0003
lwrist -14.5117
lhand -10.7125 27.7812
lfingers 7.12502
lthumb 15.2974 57.1955
rfemur -15.0329 7.81419 25.9701
rtibia 33.114
rfoot -18.5768 -15.4658
rtoes 25.0706
lfemur -13.0811 -8.76819 -19.7121
ltibia 27.6429
lfoot -16.8862 10.8464
ltoes 7.93544
3544
root 0.0630936 18.2358 -3.16024 5.147 -2.56682 -2.10546
lowerback 1.17759 -1.61308 0.33673
upperback -1.9767 -2.07685 3.01405
thorax -2.59063 -1.01323 2.98141
lowerneck -14.1174 -5.4955 -5.61078
upperneck 16.6046 -6.27797 -0.0945397
head 7.62365 -3.36347 0.206065
rclavicle -2.21396e-014 8.74653e-015
rhumerus -33.6312 -16.5827 -74.4719
rradius 27.2416
rwrist 1.017
rhand -22.7411 14.9514
rfingers 7.12502
rthumb 3.69314 -14.9963
lclavicle -2.21396e-014 8.74653e-015
lhumerus -36.2702 15.1808 82.4254
lradius 29.0225
lwrist -14.5416
lhand -10.721 27.7236
lfingers 7.12502
lthumb 15.2892 57.1385
rfemur -15.0162 7.85368 25.9269
rtibia 33.1283
rfoot -18.7131 -15.3448
rtoes 25.8656
lfemur -13.0413 -8.78586 -19.7568
ltibia 27.6177
lfoot -16.8519 10.8587
ltoes 7.58677
3545
root 0.0639944 18.2354 -3.16047 5.13252 -2.49723 -2.03782
lowerback 1.18164 -1.63198 0.303305
upperback -1.97965 -2.10329 2.99013
thorax -2.59432 -1.02597 2.9765
lowerneck -14.2282 -5.39221 -5.56417
upperneck 16.7953 -6.13274 -0.131306
head 7.69934 -3.29631 0.197067
rclavicle -8.92046e-015 -1.90833e-014
rhumerus -33.6933 -16.5575 -74.4674
rradius 27.2998
rwrist 0.982984
rhand -22.7953 14.8394
rfingers 7.12502
rthumb 3.64077 -15.1093
lclavicle -8.92046e-015 -1.90833e-014
lhumerus -36.2894 15.1426 82.4166
lradius 29.0278
lwrist -14.5229
lhand -10.6963 27.6456
lfingers 7.12502
lthumb 15.3131 57.0587
rfemur -14.9894 7.80789 25.8584
rtibia 33.1147
rfoot -18.8153 -15.331
rtoes 26.1685
lfemur -13.0207 -8.80679 -19.8377
ltibia 27.623
lfoot -16.84 10.8804
ltoes 7.30976
3546
root 0.0654995 18.2356 -3.16085 5.15832 -2.44916 -2.05572
lowerback 1.11831 -1.62599 0.369001
upperback -1.96723 -2.09531 2.986
thorax -2.54871 -1.0237 2.93255
lowerneck -14.3561 -5.33658 -5.5735
upperneck 16.9781 -6.04607 -0.131205
head 7.78042 -3.25688 0.202155
rclavicle -6.85807e-015 1.19271e-014
rhumerus -33.6903 -16.6715 -74.4275
rradius 27.2876
rwrist 1.04828
rhand -22.8103 14.9637
rfingers 7.12502
rthumb 3.62632 -14.9851
lclavicle -6.85807e-015 1.19271e-014
lhumerus -36.2746 15.0463 82.4596
lradius 29.0842
lwrist -14.4462
lhand -10.7276 27.4958
lfingers 7.12502
lthumb 15.2829 56.9112
rfemur -15.0032 7.7176 25.8707
rtibia 33.0857
rfoot -18.7117 -15.3905
rtoes 25.9042
lfemur -13.0498 -8.77657 -19.8207
ltibia 27.6437
lfoot -16.8496 10.8517
ltoes 7.08676
3547
root 0.0656579 18.2346 -3.16179 5.17331 -2.43043 -2.24664
lowerback 1.08979 -1.60692 0.575834
upperback -1.95425 -2.06449 3.04333
thorax -2.52601 -1.01196 2.87342
lowerneck -14.4512 -5.28718 -5.5665
upperneck 17.1255 -5.96497 -0.175538
head 7.84234 -3.22324 0.190998
rclavicle -1.53064e-014 3.49861e-014
rhumerus -33.7035 -16.7396 -74.3831
rradius 27.2858
rwrist 1.04459
rhand -22.8167 15.2033
rfingers 7.12502
rthumb 3.62012 -14.7457
lclavicle -1.53064e-014 3.49861e-014
lhumerus -36.2718 14.9614 82.515
lradius 29.1443
lwrist -14.3574
lhand -10.6278 27.5567
lfingers 7.12502
lthumb 15.379 56.9647
rfemur -14.9902 7.7302 26.0904
rtibia 33.037
rfoot -18.5678 -15.5285
rtoes 25.2892
lfemur -13.0975 -8.80338 -19.598
ltibia 27.6899
lfoot -16.8762 10.838
ltoes 7.27544
3548
root 0.0649663 18.2345 -3.16184 5.16873 -2.44581 -2.28007
lowerback 1.0694 -1.58522 0.602929
upperback -1.94555 -2.03525 3.05836
thorax -2.5073 -0.997876 2.87193
lowerneck -14.4445 -5.19755 -5.52189
upperneck 17.1499 -5.85135 -0.18129
head 7.84446 -3.16723 0.194944
rclavicle -2.84511e-014 1.98785e-014
rhumerus -33.7134 -16.7675 -74.3466
rradius 27.2823
rwrist 1.06702
rhand -22.7974 15.0457
rfingers 7.12502
rthumb 3.63871 -14.903
lclavicle -2.84511e-014 1.98785e-014
lhumerus -36.2406 14.9124 82.5399
lradius 29.0944
lwrist -14.2999
lhand -10.5326 27.7483
lfingers 7.12502
lthumb 15.4707 57.1492
rfemur -14.9593 7.7579 26.1293
rtibia 32.9837
rfoot -18.5267 -15.5373
rtoes 25.1774
lfemur -13.1279 -8.78695 -19.5542
ltibia 27.7447
lfoot -16.9283 10.8011
ltoes 7.60659
3549
root 0.0643254 18.235 -3.16207 5.20116 -2.43465 -2.30763
lowerback 1.03144 -1.56903 0.62346
upperback -1.95878 -2.01347 3.06854
thorax -2.50089 -0.98727 2.86931
lowerneck -14.4524 -5.07885 -5.44128
upperneck 17.1881 -5.69991 -0.212974
head 7.85077 -3.09352 0.188387
rclavicle 8.12532e-015 0
rhumerus -33.7107 -16.7817 -74.346
rradius 27.2184
rwrist 1.0672
rhand -22.8945 14.9517
rfingers 7.12502
rthumb 3.54494 -14.9985
lclavicle 8.12532e-015 0
lhumerus -36.2614 14.8432 82.5675
lradius 29.1592
lwrist -14.2209
lhand -10.5218 28.0176
lfingers 7.12502
lthumb 15.4811 57.4178
rfemur -14.9672 7.79606 26.1604
rtibia 32.9334
rfoot -18.5756 -15.5511
rtoes 25.4256
lfemur -13.1971 -8.80136 -19.5128
ltibia 27.794
lfoot -16.9423 10.8034
ltoes 7.60433
3550
root 0.0645361 18.2364 -3.16379 5.22313 -2.39343 -2.30644
lowerback 1.01872 -1.58427 0.618989
upperback -1.96344 -2.03401 3.07374
thorax -2.49729 -0.997408 2.87749
lowerneck -14.5153 -4.96921 -5.37782
upperneck 17.2838 -5.55082 -0.257825
head 7.88641 -3.02374 0.177706
rclavicle 8.49804e-015 -9.54166e-015
rhumerus -33.6701 -16.74 -74.3756
rradius 27.1676
rwrist 1.07378
rhand -22.9626 14.9693
rfingers 7.12502
rthumb 3.47922 -14.9821
lclavicle 8.49804e-015 -9.54166e-015
lhumerus -36.2966 14.8996 82.544
lradius 29.2153
lwrist -14.3272
lhand -10.5522 27.974
lfingers 7.12502
lthumb 15.4519 57.3764
rfemur -14.9854 7.78874 26.1513
rtibia 32.92
rfoot -18.6721 -15.4796
rtoes 25.964
lfemur -13.2488 -8.79135 -19.5022
ltibia 27.8019
lfoot -16.9453 10.7532
ltoes 7.69078
3551
root 0.0657831 18.2367 -3.16506 5.21504 -2.37727 -2.28849
lowerback 1.00644 -1.57404 0.633726
upperback -1.92926 -2.02155 3.0577
thorax -2.45677 -0.991989 2.85101
lowerneck -14.6752 -4.88225 -5.28633
upperneck 17.4324 -5.42555 -0.33941
head 7.95569 -2.96721 0.144594
rclavicle 2.36057e-014 -3.97569e-015
rhumerus -33.6498 -16.7316 -74.4004
rradius 27.2195
rwrist 1.04591
rhand -22.9082 14.8754
rfingers 7.12502
rthumb 3.53172 -15.0751
lclavicle 2.36057e-014 -3.97569e-015
lhumerus -36.2398 14.8613 82.5627
lradius 29.2273
lwrist -14.294
lhand -10.6659 27.9498
lfingers 7.12502
lthumb 15.3423 57.3607
rfemur -14.9744 7.71349 26.1348
rtibia 32.9153
rfoot -18.5219 -15.5636
rtoes 25.2676
lfemur -13.2522 -8.7914 -19.5258
ltibia 27.8071
lfoot -16.9483 10.7504
ltoes 7.89165
3552
root 0.0668755 18.2362 -3.16572 5.19748 -2.37063 -2.25406
lowerback 0.989788 -1.56147 0.600136
upperback -1.87416 -2.00728 3.06719
thorax -2.38978 -0.984782 2.87733
lowerneck -14.851 -4.81633 -5.29653
upperneck 17.5358 -5.32113 -0.337324
head 8.0191 -2.91852 0.153273
rclavicle 1.2275e-014 -1.59028e-014
rhumerus -33.5428 -16.7611 -74.3958
rradius 27.1774
rwrist 1.06627
rhand -22.9754 14.7748
rfingers 7.12502
rthumb 3.46688 -15.1768
lclavicle 1.2275e-014 -1.59028e-014
lhumerus -36.136 14.8608 82.6366
lradius 29.1809
lwrist -14.2298
lhand -10.836 27.9707
lfingers 7.12502
lthumb 15.1784 57.394
rfemur -14.9574 7.67988 26.0983
rtibia 32.9109
rfoot -18.4357 -15.5836
rtoes 25.0753
lfemur -13.2386 -8.81349 -19.5709
ltibia 27.8128
lfoot -16.9411 10.7852
ltoes 7.96595
3553
root 0.0668727 18.2357 -3.16663 5.16371 -2.37738 -2.29208
lowerback 1.02088 -1.53376 0.63093
upperback -1.85469 -1.96894 3.08727
thorax -2.38931 -0.966066 2.88026
lowerneck -14.922 -4.77714 -5.30383
upperneck 17.63 -5.2566 -0.35768
head 8.0613 -2.89119 0.152231
rclavicle 1.69712e-014 -2.70347e-014
rhumerus -33.5252 -16.8457 -74.3435
rradius 27.128
rwrist 1.20344
rhand -23.0694 14.7672
rfingers 7.12502
rthumb 3.37604 -15.1858
lclavicle 1.69712e-014 -2.70347e-014
lhumerus -36.097 14.7366 82.718
lradius 29.1683
lwrist -14.1481
lhand -10.981 28.1764
lfingers 7.12502
lthumb 15.0388 57.6102
rfemur -14.9112 7.70143 26.1422
rtibia 32.8991
rfoot -18.5424 -15.5233
rtoes 25.569
lfemur -13.195 -8.79846 -19.5407
ltibia 27.8241
lfoot -16.9329 10.8399
ltoes 7.72754
3554
root 0.0674025 18.2361 -3.16671 5.15797 -2.32408 -2.3338
lowerback 0.995921 -1.53255 0.691092
upperback -1.83498 -1.96691 3.09742
thorax -2.35674 -0.966316 2.85561
lowerneck -15.0029 -4.72319 -5.23809
upperneck 17.7487 -5.17705 -0.433523
head 8.1094 -2.85772 0.122378
rclavicle 1.76918e-014 4.77083e-015
rhumerus -33.4904 -16.8742 -74.3449
rradius 27.093
rwrist 1.25812
rhand -23.1386 14.7031
rfingers 7.12502
rthumb 3.30925 -15.2509
lclavicle 1.76918e-014 4.77083e-015
lhumerus -36.0408 14.6173 82.7623
lradius 29.1796
lwrist -14.0998
lhand -10.9397 28.5488
lfingers 7.12502
lthumb 15.0786 57.9796
rfemur -14.8951 7.69019 26.186
rtibia 32.8933
rfoot -18.6154 -15.4987
rtoes 25.8453
lfemur -13.1902 -8.79943 -19.4963
ltibia 27.8344
lfoot -16.9362 10.8083
ltoes 7.44385
